# Blender v2.78 (sub 0) OBJ File: '3.5.blend'
# www.blender.org
mtllib Cupcake_01.mtl
o Circle.007
v 0.938988 8.547948 1.867601
v 1.984558 8.547948 0.656629
v 1.867601 8.547948 -0.938988
v 0.656629 8.547948 -1.984558
v -0.938988 8.547948 -1.867601
v -1.984557 8.547948 -0.656629
v -1.867601 8.547948 0.938988
v -0.656630 8.547948 1.984558
v 0.450399 9.773866 1.314453
v 1.247940 9.773866 0.610977
v 1.314454 9.773866 -0.450399
v 0.610979 9.773866 -1.247939
v -0.450399 9.773866 -1.314453
v -1.247939 9.773866 -0.610977
v -1.314453 9.773866 0.450399
v -0.610977 9.773866 1.247940
v -0.350020 11.927728 0.548552
v -0.151285 11.588186 0.300458
v -0.016837 11.617046 0.318181
v 0.074321 11.686725 0.247050
v 0.080783 11.756401 0.123921
v 0.018597 11.785263 -0.013688
v -0.122852 11.756401 -0.082399
v -0.257897 11.686725 0.006839
v -0.267665 11.617046 0.172853
v -0.344995 11.156516 0.319975
v -0.470205 11.156516 -0.017692
v -0.319975 11.156516 -0.344995
v 0.017692 11.156516 -0.470205
v 0.344995 11.156516 -0.319976
v 0.470206 11.156516 0.017692
v 0.319976 11.156516 0.344995
v -0.017691 11.156516 0.470205
v 0.645571 10.096537 1.392547
v 0.767367 10.580889 1.146684
v 1.353438 10.580889 0.268217
v 1.441167 10.096537 0.528192
v 1.146684 10.580889 -0.767367
v 1.392547 10.096537 -0.645570
v 0.268217 10.580889 -1.353438
v 0.528192 10.096537 -1.441167
v -0.767367 10.580889 -1.146683
v -0.645570 10.096537 -1.392547
v -1.353438 10.580889 -0.268217
v -1.441167 10.096537 -0.528192
v -1.146683 10.580889 0.767367
v -1.392547 10.096537 0.645570
v -0.268217 10.580889 1.353438
v -0.528192 10.096537 1.441166
v 0.852246 8.957621 2.106081
v 1.102244 9.469222 1.647093
v 1.944076 9.469222 0.385267
v 2.091853 8.957621 0.886595
v 1.647094 9.469222 -1.102244
v 2.106081 8.957621 -0.852246
v 0.385267 9.469222 -1.944075
v 0.886596 8.957621 -2.091853
v -1.102244 9.469222 -1.647093
v -0.852246 8.957621 -2.106081
v -1.944075 9.469222 -0.385266
v -2.091853 8.957621 -0.886595
v -1.647093 9.469222 1.102244
v -2.106081 8.957621 0.852246
v -0.385267 9.469222 1.944075
v -0.886595 8.957621 2.091853
v 1.063066 7.825141 2.227720
v 2.326937 7.825141 0.823535
v 2.227720 7.825141 -1.063066
v 0.823535 7.825141 -2.326937
v -1.063066 7.825141 -2.227720
v -2.326936 7.825141 -0.823534
v -2.227719 7.825141 1.063066
v -0.823535 7.825141 2.326937
v 1.377429 8.314292 2.058304
v 1.309510 8.043365 2.179132
v 2.466842 8.043365 0.614916
v 2.429430 8.314292 0.481452
v 2.179132 8.043365 -1.309510
v 2.058304 8.314292 -1.377429
v 0.614916 8.043365 -2.466842
v 0.481452 8.314292 -2.429430
v -1.309510 8.043365 -2.179132
v -1.377429 8.314292 -2.058304
v -2.466842 8.043365 -0.614915
v -2.429429 8.314292 -0.481451
v -2.179132 8.043365 1.309510
v -2.058304 8.314292 1.377428
v -0.614916 8.043365 2.466842
v -0.481452 8.314292 2.429430
v 0.000099 0.078573 -3.540580
v -2.503638 0.078573 -2.503498
v -3.540720 0.078573 0.000240
v -2.503638 0.078573 2.503977
v 0.000099 0.078573 3.541059
v 2.503836 0.078573 2.503978
v 3.540918 0.078573 0.000240
v 2.503836 0.078573 -2.503499
v 0.000025 6.680284 -5.132135
v -3.628986 6.680284 -3.628950
v -5.132171 6.680284 0.000060
v -3.628986 6.680284 3.629070
v 0.000024 6.680284 5.132255
v 3.629034 6.680284 3.629071
v 5.132220 6.680284 0.000059
v 3.629033 6.680284 -3.628952
v -0.591078 0.078573 -3.632468
v -2.150588 0.078573 -2.986498
v -1.262728 0.169252 -3.048494
v -2.986598 0.078573 -2.150488
v -3.634213 0.078573 -0.582706
v -3.049092 0.169252 -1.260377
v -3.634213 0.078573 0.583048
v -2.981913 0.078573 2.157842
v -3.047852 0.169252 1.262786
v -2.157600 0.078573 2.982154
v -0.582807 0.078573 3.634455
v -1.262395 0.169252 3.048243
v 0.582947 0.078573 3.634455
v 2.157741 0.078573 2.982154
v 1.262623 0.169252 3.048243
v 2.982053 0.078573 2.157842
v 3.634355 0.078573 0.583048
v 3.048081 0.169252 1.262786
v 3.634354 0.078573 -0.582707
v 2.982053 0.078573 -2.157501
v 3.048080 0.169252 -1.262233
v 2.157740 0.078573 -2.981813
v 0.591218 0.078573 -3.632469
v 1.264812 0.169252 -3.047255
v -1.042057 6.680284 -5.228466
v -2.960238 6.680284 -4.433929
v -1.837831 6.487590 -4.436916
v -4.433914 6.680284 -2.960253
v -5.230474 6.680284 -1.031898
v -4.437511 6.487590 -1.835077
v -5.230474 6.680284 1.031848
v -4.428151 6.680284 2.968827
v -4.435987 6.487590 1.837568
v -2.968863 6.680284 4.428115
v -1.031884 6.680284 5.230439
v -1.837421 6.487590 4.436134
v 1.031861 6.680284 5.230439
v 2.968841 6.680284 4.428116
v 1.837506 6.487590 4.436134
v 4.428130 6.680284 2.968827
v 5.230453 6.680284 1.031848
v 4.436072 6.487590 1.837568
v 5.230453 6.680284 -1.031899
v 4.428130 6.680284 -2.968879
v 4.436072 6.487590 -1.837360
v 2.968840 6.680284 -4.428168
v 1.042035 6.680284 -5.228467
v 1.840198 6.487590 -4.435391
v 2.102836 0.078573 0.000240
v 1.486959 0.078573 1.487100
v 0.000099 0.078573 2.102978
v -1.486761 0.078573 1.487100
v -2.102639 0.078573 0.000240
v -1.472331 0.078573 -1.472190
v 0.000099 0.078573 -2.082090
v 1.486959 0.078573 -1.486620
v 1.006354 0.169252 0.417075
v 0.000538 0.169252 0.001300
v 0.416912 0.169252 1.006516
v -0.416684 0.169252 1.006516
v -1.006126 0.169252 0.417075
v -1.002134 0.169252 -0.413652
v -0.412639 0.169252 -0.996198
v 0.416119 0.169252 -1.001112
v 1.006353 0.169252 -0.416522
v -0.000000 6.657935 -5.056527
v -3.575504 6.657935 -3.575504
v -5.056528 6.657935 0.000000
v -3.575504 6.657935 3.575504
v 0.000000 6.657935 5.056527
v 3.575505 6.657935 3.575504
v 5.056527 6.657935 -0.000000
v 3.575505 6.657935 -3.575504
v -0.000000 7.417565 -4.466084
v -3.157998 7.417565 -3.157998
v -4.466085 7.417565 0.000000
v -3.157998 7.417565 3.157998
v 0.000000 7.417565 4.466084
v 3.157999 7.417565 3.157998
v 4.466084 7.417565 -0.000000
v 3.157999 7.417565 -3.157998
v -0.000000 7.891648 -2.121586
v -1.500188 7.891648 -1.500188
v -2.121586 7.891648 0.000000
v -1.500188 7.891648 1.500188
v 0.000000 7.891648 2.121586
v 1.500188 7.891648 1.500187
v 2.121586 7.891648 -0.000000
v 1.500188 7.891648 -1.500188
v 0.000000 8.038385 -0.000000
v 4.239282 3.431391 -0.000000
v 2.997626 3.431391 2.997625
v 0.000000 3.431391 4.239283
v -2.997625 3.431391 2.997625
v -4.239283 3.431391 0.000000
v -2.997625 3.431391 -2.997625
v -0.000000 3.431391 -4.239283
v 2.997626 3.431391 -2.997625
v 0.000041 6.483258 -4.279905
v -3.026379 6.483258 -3.026321
v -4.279963 6.483258 0.000100
v -3.026379 6.483258 3.026520
v 0.000041 6.483258 4.280105
v 3.026461 6.483258 3.026521
v 4.280046 6.483258 0.000100
v 3.026460 6.483258 -3.026322
v -0.869005 6.483258 -4.360240
v -2.468676 6.483258 -3.697635
v -1.532642 6.322560 -3.700125
v -3.697651 6.483258 -2.468659
v -4.361944 6.483258 -0.860504
v -3.700651 6.322560 -1.530316
v -4.361944 6.483258 0.860562
v -3.692845 6.483258 2.475910
v -3.699379 6.322560 1.532494
v -2.475869 6.483258 3.692886
v -0.860521 6.483258 4.361985
v -1.532301 6.322560 3.699573
v 0.860543 6.483258 4.361985
v 2.475892 6.483258 3.692887
v 1.532413 6.322560 3.699574
v 3.692869 6.483258 2.475910
v 4.361969 6.483258 0.860562
v 3.699492 6.322560 1.532494
v 4.361968 6.483258 -0.860505
v 3.692869 6.483258 -2.475852
v 3.699492 6.322560 -1.532221
v 2.475891 6.483258 -3.692830
v 0.869028 6.483258 -4.360241
v 1.534657 6.322560 -3.698853
vn -0.8996 -0.2279 -0.3726
vn 0.3726 -0.2279 -0.8996
vn 0.8996 -0.2279 -0.3726
vn 0.3726 -0.2279 0.8996
vn -0.8996 -0.2279 0.3726
vn -0.3726 -0.2279 -0.8996
vn 0.8996 -0.2279 0.3726
vn 0.3108 0.5833 -0.7504
vn 0.7504 0.5833 0.3108
vn -0.3108 0.5833 0.7504
vn -0.7504 0.5833 -0.3108
vn 0.7504 0.5833 -0.3108
vn 0.3108 0.5833 0.7504
vn -0.7504 0.5833 0.3108
vn -0.3108 0.5833 -0.7504
vn -0.0690 0.9972 0.0286
vn -0.0286 0.9972 -0.0690
vn 0.0286 0.9972 -0.0690
vn 0.0690 0.9972 0.0286
vn -0.0286 0.9972 0.0690
vn -0.0690 0.9972 -0.0286
vn 0.0690 0.9972 -0.0286
vn 0.0286 0.9972 0.0690
vn 0.0818 0.9769 0.1975
vn -0.1975 0.9769 0.0818
vn -0.0818 0.9769 -0.1975
vn 0.0818 0.9769 -0.1975
vn 0.1975 0.9769 0.0818
vn -0.0818 0.9769 0.1975
vn -0.1975 0.9769 -0.0818
vn 0.1975 0.9769 -0.0818
vn -0.3726 -0.2279 0.8996
vn 0.6031 -0.2991 -0.7394
vn 0.0964 -0.2991 0.9493
vn 0.7394 -0.2991 0.6031
vn -0.9493 -0.2991 0.0964
vn -0.0964 -0.2991 -0.9493
vn 0.9493 -0.2991 -0.0964
vn -0.6031 -0.2991 0.7394
vn -0.7394 -0.2991 -0.6031
vn -0.4814 0.8754 0.0435
vn -0.0435 0.8754 -0.4814
vn 0.4814 0.8754 -0.0435
vn -0.3096 0.8754 0.3711
vn -0.3711 0.8754 -0.3096
vn 0.3096 0.8754 -0.3711
vn 0.0435 0.8754 0.4814
vn 0.3711 0.8754 0.3096
vn 0.9248 -0.3793 -0.0285
vn 0.0285 -0.3793 0.9248
vn -0.6338 -0.3793 0.6741
vn -0.6741 -0.3793 -0.6338
vn 0.6338 -0.3793 -0.6741
vn -0.9248 -0.3793 0.0285
vn -0.0285 -0.3793 -0.9248
vn -0.3731 0.8346 0.4053
vn -0.4053 0.8346 -0.3730
vn 0.3730 0.8346 -0.4053
vn 0.0228 0.8346 0.5504
vn 0.4053 0.8346 0.3731
vn -0.5504 0.8346 0.0228
vn -0.0228 0.8346 -0.5504
vn 0.5504 0.8346 -0.0228
vn 0.3857 0.9224 0.0192
vn -0.9857 -0.1268 -0.1112
vn -0.6162 0.6753 -0.4052
vn 0.5945 0.0421 0.8030
vn -0.0588 0.9578 -0.2813
vn -0.6200 -0.6660 0.4148
vn 0.6507 0.6458 0.3996
vn 0.0181 -0.5830 0.8123
vn 0.5129 0.5762 -0.6363
vn 0.8214 0.5558 -0.1276
vn -0.9199 0.3002 0.2524
vn -0.1309 0.5164 -0.8463
vn -0.7849 0.4038 -0.4700
vn 0.7338 0.4362 0.5208
vn -0.5000 0.2617 0.8256
vn 0.1934 0.3072 0.9318
vn 0.0074 -0.3849 -0.9229
vn -0.0074 -0.3849 0.9229
vn 0.6578 -0.3849 -0.6474
vn -0.9229 -0.3849 -0.0074
vn 0.9229 -0.3849 0.0074
vn -0.6474 -0.3849 -0.6578
vn -0.6578 -0.3849 0.6474
vn 0.7512 0.2846 0.5956
vn 0.9523 0.2846 -0.1101
vn 0.5956 0.2846 -0.7512
vn -0.1101 0.2846 -0.9523
vn -0.7512 0.2846 -0.5956
vn -0.9523 0.2846 0.1101
vn -0.5956 0.2846 0.7512
vn 0.1101 0.2846 0.9523
vn 0.6474 -0.3849 0.6578
vn 0.6779 0.4660 0.5686
vn 0.8814 0.4660 -0.0772
vn 0.5686 0.4660 -0.6779
vn -0.0772 0.4660 -0.8814
vn -0.6779 0.4660 -0.5686
vn -0.8814 0.4660 0.0772
vn -0.5686 0.4660 0.6779
vn 0.0772 0.4660 0.8814
vn 0.6741 -0.3793 0.6338
vn -0.0765 0.8371 -0.5416
vn 0.5416 0.8371 -0.0765
vn 0.0765 0.8371 0.5416
vn -0.3289 0.8371 0.4371
vn -0.4371 0.8371 -0.3289
vn 0.3289 0.8371 -0.4371
vn -0.5416 0.8371 0.0765
vn 0.7982 0.2185 0.5614
vn 0.9614 0.2185 -0.1674
vn 0.5614 0.2185 -0.7982
vn -0.1674 0.2185 -0.9614
vn -0.7982 0.2185 -0.5614
vn -0.9614 0.2185 0.1674
vn -0.5614 0.2185 0.7982
vn 0.1674 0.2185 0.9614
vn 0.4371 0.8371 0.3289
vn 0.0000 -1.0000 0.0000
vn -0.9665 -0.2294 -0.1148
vn 0.9665 -0.2294 0.1147
vn -0.7646 -0.2294 0.6023
vn 0.7646 -0.2294 -0.6023
vn 0.1114 -0.2296 -0.9669
vn -0.1147 -0.2294 0.9665
vn -0.6049 -0.2296 -0.7625
vn 0.6024 -0.2294 0.7645
vn 0.6023 -0.2294 -0.7646
vn 0.1147 -0.2294 0.9666
vn -0.1114 -0.2296 -0.9669
vn -0.7625 -0.2296 -0.6049
vn 0.7645 -0.2294 0.6024
vn -0.9665 -0.2294 0.1148
vn 0.9665 -0.2294 -0.1147
vn -0.6023 -0.2294 0.7646
vn -0.0431 -0.9991 0.0000
vn -0.0305 -0.9991 -0.0305
vn 0.0000 -0.9991 -0.0431
vn 0.0305 -0.9991 -0.0305
vn 0.0431 -0.9991 0.0002
vn 0.0306 -0.9991 0.0309
vn 0.0003 -0.9991 0.0435
vn -0.0303 -0.9991 0.0306
vn 0.9747 -0.2188 -0.0466
vn 0.7221 -0.2188 -0.6563
vn -0.7221 -0.2188 0.6562
vn -0.9747 -0.2188 0.0465
vn -0.6562 -0.2188 0.7221
vn -0.0467 -0.2188 0.9747
vn 0.6589 -0.2186 -0.7198
vn 0.0461 -0.2188 -0.9747
vn -0.0426 -0.2185 -0.9749
vn -0.6592 -0.2185 -0.7195
vn 0.0467 -0.2188 0.9747
vn 0.6562 -0.2188 0.7222
vn -0.7218 -0.2188 -0.6566
vn -0.9749 -0.2186 -0.0430
vn 0.7222 -0.2188 0.6562
vn 0.9747 -0.2188 0.0466
vn 0.0432 -0.9940 0.1008
vn -0.0407 -0.9940 -0.1019
vn 0.0407 -0.9940 0.1019
vn -0.0432 -0.9940 -0.1009
vn -0.1019 -0.9940 -0.0407
vn 0.1008 -0.9940 0.0432
vn 0.1026 -0.9939 0.0411
vn -0.1011 -0.9939 -0.0434
vn 0.1018 -0.9938 -0.0436
vn -0.1029 -0.9938 0.0411
vn -0.1009 -0.9940 0.0432
vn 0.1019 -0.9940 -0.0407
vn 0.0408 -0.9939 -0.1021
vn -0.0435 -0.9939 0.1016
vn -0.0407 -0.9940 0.1019
vn 0.0432 -0.9940 -0.1009
vn 0.1740 0.9741 0.1445
vn -0.0127 0.9746 -0.2236
vn 0.1677 0.9745 0.1488
vn -0.0208 0.9741 0.2252
vn 0.2237 0.9746 -0.0130
vn -0.0214 0.9741 -0.2252
vn -0.2236 0.9746 -0.0126
vn 0.1744 0.9741 -0.1441
vn 0.1670 0.9746 -0.1492
vn -0.1441 0.9741 0.1744
vn -0.0134 0.9745 0.2238
vn -0.2252 0.9741 -0.0214
vn 0.1490 0.9746 0.1674
vn 0.2236 0.9746 0.0126
vn 0.2252 0.9741 -0.0215
vn 0.1445 0.9741 0.1740
vn -0.1744 0.9741 -0.1441
vn 0.0130 0.9746 0.2237
vn 0.0214 0.9741 -0.2252
vn -0.1671 0.9746 -0.1492
vn 0.0208 0.9741 0.2252
vn -0.2236 0.9746 0.0126
vn 0.1492 0.9746 -0.1670
vn -0.1744 0.9741 0.1441
vn 0.1441 0.9741 -0.1744
vn -0.1673 0.9746 0.1489
vn 0.0126 0.9746 -0.2236
vn 0.2252 0.9741 0.0215
vn -0.1492 0.9746 -0.1671
vn -0.2252 0.9741 0.0214
vn -0.1441 0.9741 -0.1744
vn -0.1492 0.9746 0.1670
usemtl F06292
s off
f 173//1 172//1 201//1 200//1
f 171//2 178//2 203//2 202//2
f 178//3 177//3 196//3 203//3
f 176//4 175//4 198//4 197//4
f 174//5 173//5 200//5 199//5
f 172//6 171//6 202//6 201//6
f 177//7 176//7 197//7 196//7
f 178//8 171//8 179//8 186//8
f 176//9 177//9 185//9 184//9
f 174//10 175//10 183//10 182//10
f 172//11 173//11 181//11 180//11
f 177//12 178//12 186//12 185//12
f 175//13 176//13 184//13 183//13
f 173//14 174//14 182//14 181//14
f 171//15 172//15 180//15 179//15
f 189//16 190//16 195//16
f 187//17 188//17 195//17
f 194//18 187//18 195//18
f 192//19 193//19 195//19
f 190//20 191//20 195//20
f 188//21 189//21 195//21
f 193//22 194//22 195//22
f 191//23 192//23 195//23
f 183//24 184//24 192//24 191//24
f 181//25 182//25 190//25 189//25
f 179//26 180//26 188//26 187//26
f 186//27 179//27 187//27 194//27
f 184//28 185//28 193//28 192//28
f 182//29 183//29 191//29 190//29
f 180//30 181//30 189//30 188//30
f 185//31 186//31 194//31 193//31
f 175//32 174//32 199//32 198//32
usemtl FFFFFF
f 80//33 78//33 68//33 69//33
f 75//34 88//34 73//34 66//34
f 76//35 75//35 66//35 67//35
f 86//36 84//36 71//36 72//36
f 82//37 80//37 69//37 70//37
f 78//38 76//38 67//38 68//38
f 88//39 86//39 72//39 73//39
f 84//40 82//40 70//40 71//40
f 62//41 15//41 14//41 60//41
f 58//42 13//42 12//42 56//42
f 54//43 11//43 10//43 52//43
f 64//44 16//44 15//44 62//44
f 60//45 14//45 13//45 58//45
f 56//46 12//46 11//46 54//46
f 51//47 9//47 16//47 64//47
f 52//48 10//48 9//48 51//48
f 3//49 55//49 53//49 2//49
f 1//50 50//50 65//50 8//50
f 8//51 65//51 63//51 7//51
f 6//52 61//52 59//52 5//52
f 4//53 57//53 55//53 3//53
f 7//54 63//54 61//54 6//54
f 5//55 59//55 57//55 4//55
f 48//56 26//56 27//56 46//56
f 44//57 28//57 29//57 42//57
f 40//58 30//58 31//58 38//58
f 35//59 33//59 26//59 48//59
f 36//60 32//60 33//60 35//60
f 46//61 27//61 28//61 44//61
f 42//62 29//62 30//62 40//62
f 38//63 31//63 32//63 36//63
f 22//64 17//64 21//64
f 25//65 17//65 24//65
f 24//66 17//66 23//66
f 20//67 17//67 19//67
f 23//68 17//68 22//68
f 18//69 17//69 25//69
f 21//70 17//70 20//70
f 19//71 17//71 18//71
f 29//72 22//72 21//72 30//72
f 30//73 21//73 20//73 31//73
f 26//74 25//74 24//74 27//74
f 28//75 23//75 22//75 29//75
f 27//76 24//76 23//76 28//76
f 31//77 20//77 19//77 32//77
f 33//78 18//78 25//78 26//78
f 32//79 19//79 18//79 33//79
f 13//80 43//80 41//80 12//80
f 9//81 34//81 49//81 16//81
f 12//82 41//82 39//82 11//82
f 15//83 47//83 45//83 14//83
f 11//84 39//84 37//84 10//84
f 14//85 45//85 43//85 13//85
f 16//86 49//86 47//86 15//86
f 37//87 36//87 35//87 34//87
f 39//88 38//88 36//88 37//88
f 41//89 40//89 38//89 39//89
f 43//90 42//90 40//90 41//90
f 45//91 44//91 42//91 43//91
f 47//92 46//92 44//92 45//92
f 49//93 48//93 46//93 47//93
f 34//94 35//94 48//94 49//94
f 10//95 37//95 34//95 9//95
f 53//96 52//96 51//96 50//96
f 55//97 54//97 52//97 53//97
f 57//98 56//98 54//98 55//98
f 59//99 58//99 56//99 57//99
f 61//100 60//100 58//100 59//100
f 63//101 62//101 60//101 61//101
f 65//102 64//102 62//102 63//102
f 50//103 51//103 64//103 65//103
f 2//104 53//104 50//104 1//104
f 83//105 5//105 4//105 81//105
f 79//106 3//106 2//106 77//106
f 74//107 1//107 8//107 89//107
f 89//108 8//108 7//108 87//108
f 85//109 6//109 5//109 83//109
f 81//110 4//110 3//110 79//110
f 87//111 7//111 6//111 85//111
f 77//112 74//112 75//112 76//112
f 79//113 77//113 76//113 78//113
f 81//114 79//114 78//114 80//114
f 83//115 81//115 80//115 82//115
f 85//116 83//116 82//116 84//116
f 87//117 85//117 84//117 86//117
f 89//118 87//118 86//118 88//118
f 74//119 89//119 88//119 75//119
f 77//120 2//120 1//120 74//120
f 97//121 125//121 161//121
f 92//122 112//122 136//122 100//122
f 96//123 124//123 148//123 104//123
f 94//121 116//121 156//121
f 90//121 128//121 160//121
f 93//124 115//124 139//124 101//124
f 91//121 107//121 159//121
f 97//125 127//125 151//125 105//125
f 95//121 119//121 155//121
f 90//126 106//126 130//126 98//126
f 94//127 118//127 142//127 102//127
f 92//121 110//121 158//121
f 96//121 122//121 154//121
f 91//128 109//128 133//128 99//128
f 95//129 121//129 145//129 103//129
f 93//121 113//121 157//121
f 125//130 97//130 105//130 149//130
f 115//121 93//121 157//121
f 127//121 97//121 161//121
f 116//131 94//131 102//131 140//131
f 128//132 90//132 98//132 152//132
f 118//121 94//121 156//121
f 107//133 91//133 99//133 131//133
f 119//134 95//134 103//134 143//134
f 109//121 91//121 159//121
f 121//121 95//121 155//121
f 110//135 92//135 100//135 134//135
f 122//136 96//136 104//136 146//136
f 112//121 92//121 158//121
f 124//121 96//121 154//121
f 113//137 93//137 101//137 137//137
f 154//138 162//138 163//138 170//138
f 155//139 164//139 163//139 162//139
f 156//140 165//140 163//140 164//140
f 157//141 166//141 163//141 165//141
f 158//142 167//142 163//142 166//142
f 159//143 168//143 163//143 167//143
f 160//144 169//144 163//144 168//144
f 161//145 170//145 163//145 169//145
f 125//146 149//146 150//146 126//146
f 126//147 150//147 148//147 124//147
f 136//148 112//148 114//148 138//148
f 138//149 114//149 113//149 137//149
f 116//150 140//150 141//150 117//150
f 117//151 141//151 139//151 115//151
f 128//152 152//152 153//152 129//152
f 129//153 153//153 151//153 127//153
f 107//154 131//154 132//154 108//154
f 108//155 132//155 130//155 106//155
f 119//156 143//156 144//156 120//156
f 120//157 144//157 142//157 118//157
f 110//158 134//158 135//158 111//158
f 111//159 135//159 133//159 109//159
f 122//160 146//160 147//160 123//160
f 123//161 147//161 145//161 121//161
f 161//162 125//162 126//162 170//162
f 170//163 126//163 124//163 154//163
f 112//164 158//164 166//164 114//164
f 114//165 166//165 157//165 113//165
f 156//166 116//166 117//166 165//166
f 165//167 117//167 115//167 157//167
f 160//168 128//168 129//168 169//168
f 169//169 129//169 127//169 161//169
f 159//170 107//170 108//170 168//170
f 168//171 108//171 106//171 160//171
f 155//172 119//172 120//172 164//172
f 164//173 120//173 118//173 156//173
f 158//174 110//174 111//174 167//174
f 167//175 111//175 109//175 159//175
f 154//176 122//176 123//176 162//176
f 162//177 123//177 121//177 155//177
f 106//121 90//121 160//121
f 131//178 99//178 205//178 213//178
f 141//179 140//179 222//179 223//179
f 132//180 131//180 213//180 214//180
f 98//181 130//181 212//181 204//181
f 135//182 134//182 216//182 217//182
f 140//183 102//183 208//183 222//183
f 148//184 150//184 232//184 230//184
f 101//185 139//185 221//185 207//185
f 139//186 141//186 223//186 221//186
f 149//187 105//187 211//187 231//187
f 130//188 132//188 214//188 212//188
f 104//189 148//189 230//189 210//189
f 133//190 135//190 217//190 215//190
f 136//191 138//191 220//191 218//191
f 134//192 100//192 206//192 216//192
f 99//193 133//193 215//193 205//193
f 143//194 103//194 209//194 225//194
f 153//195 152//195 234//195 235//195
f 102//196 142//196 224//196 208//196
f 144//197 143//197 225//197 226//197
f 152//198 98//198 204//198 234//198
f 147//199 146//199 228//199 229//199
f 138//200 137//200 219//200 220//200
f 105//201 151//201 233//201 211//201
f 137//202 101//202 207//202 219//202
f 151//203 153//203 235//203 233//203
f 142//204 144//204 226//204 224//204
f 100//205 136//205 218//205 206//205
f 145//206 147//206 229//206 227//206
f 146//207 104//207 210//207 228//207
f 103//208 145//208 227//208 209//208
f 150//209 149//209 231//209 232//209
